<svg width="13" height="14" viewBox="0 0 13 14" fill="none" xmlns="http://www.w3.org/2000/svg">
<path d="M5.92492 7.58008C4.31524 7.58008 2.88739 7.94374 1.94917 8.26009C1.25662 8.49436 0.794922 9.14701 0.794922 9.87832L0.794922 12.1401L5.92492 12.1401" stroke="#171A1F" stroke-width="1.368" stroke-miterlimit="10" stroke-linecap="round"/>
<path d="M5.93008 7.55997C4.35631 7.55997 3.08008 5.71374 3.08008 4.13997L3.08008 3.56997C3.08008 1.9962 4.35631 0.719971 5.93008 0.719971C7.50385 0.719971 8.78008 1.9962 8.78008 3.56997V4.13997C8.78008 5.71374 7.50385 7.55997 5.93008 7.55997Z" stroke="#171A1F" stroke-width="1.368" stroke-miterlimit="10" stroke-linecap="round"/>
<path d="M7.72168 9.85502C7.97476 8.87177 8.86738 8.14502 9.92986 8.14502C10.7735 8.14502 11.5099 8.6033 11.9043 9.28445" stroke="#171A1F" stroke-width="1.368" stroke-miterlimit="10" stroke-linecap="round"/>
<path d="M12.9095 7.94727L12.6644 10.4325L10.2305 9.89667L12.9095 7.94727Z" fill="#171A1F"/>
<path d="M12.1441 11.575C11.891 12.5582 10.9984 13.285 9.93591 13.285C9.09231 13.285 8.35587 12.8267 7.96143 12.1455" stroke="#171A1F" stroke-width="1.368" stroke-miterlimit="10" stroke-linecap="round"/>
<path d="M6.9502 13.4825L7.1953 10.9973L9.6292 11.5331L6.9502 13.4825Z" fill="#171A1F"/>
</svg>
