<svg width="14" height="14" viewBox="0 0 14 14" fill="none" xmlns="http://www.w3.org/2000/svg">
<path d="M13.4001 7.36763C13.3995 3.96316 10.7338 1.15497 7.33394 0.977358C3.93409 0.79975 0.990262 3.3149 0.634997 6.70079C0.279731 10.0867 2.63739 13.1581 6.00005 13.69L6.00005 9.21764H4.37525V7.36763L6.00005 7.36763L6.00005 5.95764C6.00005 4.35364 6.95565 3.46764 8.41725 3.46764C8.89726 3.47429 9.37613 3.516 9.85005 3.59244V5.16763H9.04286C8.76422 5.13063 8.48388 5.22235 8.28101 5.4169C8.07814 5.61144 7.97475 5.8877 8.00005 6.16763V7.36763L9.77526 7.36763L9.49126 9.21764H8.00005L8.00005 13.69C11.1103 13.198 13.4006 10.5166 13.4001 7.36763Z" fill="#FF5733"/>
</svg>
