<svg width="12" height="13" viewBox="0 0 12 13" fill="none" xmlns="http://www.w3.org/2000/svg">
<path d="M6 1.44768C7.6 1.44768 7.792 1.45368 8.4244 1.48248C8.80498 1.48697 9.18195 1.55692 9.5388 1.68928C9.79932 1.78545 10.035 1.93881 10.2284 2.13808C10.4277 2.33151 10.581 2.56715 10.6772 2.82768C10.8096 3.18453 10.8795 3.5615 10.884 3.94208C10.9128 4.57568 10.92 4.76768 10.92 6.36768C10.92 7.96768 10.914 8.15968 10.8852 8.79208C10.8807 9.17266 10.8108 9.54962 10.6784 9.90648C10.4764 10.4295 10.063 10.8429 9.54 11.0449C9.18315 11.1772 8.80618 11.2472 8.4256 11.2517C7.7932 11.2805 7.6032 11.2865 6.0012 11.2865C4.3992 11.2865 4.2092 11.2805 3.5768 11.2517C3.19622 11.2472 2.81925 11.1772 2.4624 11.0449C2.20188 10.9487 1.96623 10.7953 1.7728 10.5961C1.57353 10.4026 1.42017 10.167 1.324 9.90648C1.19165 9.54962 1.12169 9.17266 1.1172 8.79208C1.0872 8.15968 1.08 7.96968 1.08 6.36768C1.08 4.76568 1.086 4.57568 1.1148 3.94328C1.11929 3.5627 1.18925 3.18573 1.3216 2.82888C1.41812 2.56824 1.5719 2.33258 1.7716 2.13928C1.96503 1.94001 2.20068 1.78665 2.4612 1.69048C2.81805 1.55812 3.19502 1.48817 3.5756 1.48368C4.208 1.45488 4.4 1.44768 6 1.44768ZM6 0.367676C4.3704 0.367676 4.166 0.374476 3.5264 0.403676C3.02849 0.414225 2.53595 0.508893 2.0696 0.683676C1.66951 0.834254 1.30698 1.07011 1.0072 1.37488C0.702004 1.67454 0.465729 2.03707 0.3148 2.43728C0.140017 2.90362 0.0453491 3.39616 0.0348 3.89408C0.0068 4.53368 0 4.73808 0 6.36768C0 7.99728 0.00680001 8.20168 0.036 8.84128C0.0465491 9.33919 0.141217 9.83173 0.316 10.2981C0.466929 10.6983 0.703204 11.0608 1.0084 11.3605C1.30806 11.6657 1.6706 11.9019 2.0708 12.0529C2.53715 12.2277 3.02969 12.3223 3.5276 12.3329C4.1676 12.3621 4.3716 12.3689 6.0012 12.3689C7.6308 12.3689 7.8352 12.3621 8.4748 12.3329C8.97271 12.3223 9.46525 12.2277 9.9316 12.0529C10.7372 11.7406 11.3741 11.1037 11.6864 10.2981C11.8612 9.83173 11.9559 9.33919 11.9664 8.84128C11.9956 8.20128 12.0024 7.99728 12.0024 6.36768C12.0024 4.73808 11.9956 4.53368 11.9664 3.89408C11.9559 3.39616 11.8612 2.90362 11.6864 2.43728C11.5355 2.03707 11.2992 1.67454 10.994 1.37488C10.6943 1.06968 10.3318 0.833405 9.9316 0.682476C9.46525 0.507693 8.97271 0.413025 8.4748 0.402476C7.834 0.374476 7.6296 0.367676 6 0.367676Z" fill="#FF5733"/>
<path d="M5.99992 3.2876C4.29888 3.2876 2.91992 4.66656 2.91992 6.3676C2.91992 8.06863 4.29888 9.4476 5.99992 9.4476C7.70096 9.4476 9.07992 8.06863 9.07992 6.3676C9.07992 4.66656 7.70096 3.2876 5.99992 3.2876ZM5.99992 8.3676C4.89535 8.3676 3.99992 7.47217 3.99992 6.3676C3.99992 5.26303 4.89535 4.3676 5.99992 4.3676C7.10449 4.3676 7.99992 5.26303 7.99992 6.3676C7.99992 7.47217 7.10449 8.3676 5.99992 8.3676Z" fill="#FF5733"/>
<path d="M9.19998 3.88775C9.59763 3.88775 9.91998 3.5654 9.91998 3.16775C9.91998 2.77011 9.59763 2.44775 9.19998 2.44775C8.80234 2.44775 8.47998 2.77011 8.47998 3.16775C8.47998 3.5654 8.80234 3.88775 9.19998 3.88775Z" fill="#FF5733"/>
</svg>
