<svg width="12" height="13" viewBox="0 0 12 13" fill="none" xmlns="http://www.w3.org/2000/svg">
<path d="M11.2 0.367676L0.8 0.367676C0.358172 0.367676 0 0.725848 0 1.16768L0 11.5677C0 12.0095 0.358172 12.3677 0.8 12.3677L11.2 12.3677C11.6418 12.3677 12 12.0095 12 11.5677L12 1.16768C12 0.725848 11.6418 0.367676 11.2 0.367676ZM3.5548 10.6053L1.7496 10.6053L1.7496 4.86768L3.5548 4.86768L3.5548 10.6053ZM2.652 4.08008C2.07252 4.07831 1.60403 3.60743 1.6052 3.02795C1.60638 2.44847 2.07678 1.97949 2.65626 1.98008C3.23574 1.98067 3.7052 2.45059 3.7052 3.03008C3.70531 3.30914 3.59428 3.57676 3.39665 3.77379C3.19902 3.97082 2.93106 4.08103 2.652 4.08008ZM10.2484 10.6053L8.48 10.6053L8.48 7.83008C8.48 7.15528 8.48 6.33008 7.54 6.33008C6.6 6.33008 6.4868 7.04288 6.4868 7.79248L6.4868 10.6429L4.72 10.6429L4.72 4.86768L6.3744 4.86768L6.3744 5.65528H6.412C6.75968 5.05417 7.4104 4.69366 8.1044 4.71768C9.9096 4.71768 10.248 5.91768 10.248 7.45528L10.2484 10.6053Z" fill="#FF5733"/>
</svg>
