<svg width="14" height="11" viewBox="0 0 14 11" fill="none" xmlns="http://www.w3.org/2000/svg">
<path d="M13.4001 1.40772C12.9201 1.60772 12.4401 1.76772 11.8801 1.80772C12.4401 1.48772 12.8401 0.967725 13.0401 0.367725C12.5201 0.687725 11.9601 0.887725 11.3601 1.00772C10.8801 0.487725 10.2001 0.167725 9.48006 0.167725C8.04006 0.167725 6.84006 1.32772 6.84006 2.80772C6.84006 3.00772 6.88006 3.20772 6.92006 3.40772C4.72006 3.28772 2.80006 2.24772 1.48006 0.647725C1.24006 1.04772 1.12006 1.48772 1.12006 1.96772C1.12006 2.88772 1.60006 3.68772 2.28006 4.16772C1.84006 4.16772 1.44006 4.04772 1.08006 3.84772V3.88772C1.08006 5.16772 2.00006 6.20772 3.20006 6.44772C2.96006 6.48772 2.76006 6.52772 2.52006 6.52772C2.36006 6.52772 2.20006 6.52772 2.04006 6.48772C2.36006 7.52772 3.36006 8.28772 4.48006 8.32772C3.60006 9.04772 2.44006 9.44772 1.20006 9.44772C1.00006 9.44772 0.760059 9.44772 0.560059 9.40772C1.76006 10.1277 3.16006 10.5677 4.64006 10.5677C9.48006 10.5677 12.1201 6.56772 12.1201 3.08772C12.1201 2.96772 12.1201 2.84772 12.1201 2.76772C12.6001 2.36772 13.0401 1.92772 13.4001 1.40772Z" fill="#FF5733"/>
</svg>
