<svg viewBox="0 0 40 40" xmlns="http://www.w3.org/2000/svg" xmlns:xlink="http://www.w3.org/1999/xlink" width="40.000000" height="40.000000" fill="none" customFrame="url(#clipPath_4)">
	<defs>
		<clipPath id="clipPath_4">
			<rect width="40.000000" height="40.000000" x="0.000000" y="0.000000" rx="20.000000" fill="rgb(255,255,255)" />
		</clipPath>
		<clipPath id="clipPath_5">
			<rect width="24.000000" height="24.000000" x="8.000000" y="8.000000" fill="rgb(255,255,255)" />
		</clipPath>
	</defs>
	<rect id="a.social-link" width="40.000000" height="40.000000" x="0.000000" y="0.000000" rx="20.000000" fill="rgb(224,224,224)" fill-opacity="255" />
	<rect id="i.fab fa-instagram" width="14.000000" height="16.000000" x="8.000000" y="12.000000" />
	<g id="Logo facebook 1" clip-path="url(#clipPath_5)" customFrame="url(#clipPath_5)">
		<rect id="Logo facebook 1" width="24.000000" height="24.000000" x="8.000000" y="8.000000" fill="rgb(255,255,255)" fill-opacity="0" />
		<g id="Group">
			<g id="Group">
				<g id="Group">
					<path id="Vector" d="M29.6 20.0001C29.5992 14.8933 25.6005 10.6811 20.5008 10.4146C15.401 10.1482 10.9853 13.921 10.4524 18.9998C9.91947 24.0786 13.456 28.6857 18.5 29.4837L18.5 22.7751L16.0628 22.7751L16.0628 20.0001L18.5 20.0001L18.5 17.8851C18.5 15.4791 19.9334 14.1501 22.1258 14.1501C22.8458 14.16 23.5641 14.2226 24.275 14.3373L24.275 16.7001L23.0642 16.7001C22.6462 16.6446 22.2257 16.7821 21.9214 17.074C21.6171 17.3658 21.462 17.7802 21.5 18.2001L21.5 20.0001L24.1628 20.0001L23.7368 22.7751L21.5 22.7751L21.5 29.4837C26.1654 28.7456 29.6007 24.7235 29.6 20.0001Z" fill="rgb(70,114,216)" fill-rule="nonzero" />
				</g>
			</g>
		</g>
	</g>
</svg>
