<svg viewBox="0 0 40 40" xmlns="http://www.w3.org/2000/svg" xmlns:xlink="http://www.w3.org/1999/xlink" width="40.000000" height="40.000000" fill="none" customFrame="url(#clipPath_6)">
	<defs>
		<clipPath id="clipPath_6">
			<rect width="40.000000" height="40.000000" x="0.000000" y="0.000000" rx="20.000000" fill="rgb(255,255,255)" />
		</clipPath>
		<clipPath id="clipPath_7">
			<rect width="24.000000" height="24.000000" x="8.000000" y="8.000000" fill="rgb(255,255,255)" />
		</clipPath>
	</defs>
	<rect id="a.social-link" width="40.000000" height="40.000000" x="0.000000" y="0.000000" rx="20.000000" fill="rgb(224,224,224)" fill-opacity="255" />
	<g id="Logo twitter 1" clip-path="url(#clipPath_7)" customFrame="url(#clipPath_7)">
		<rect id="Logo twitter 1" width="24.000000" height="24.000000" x="8.000000" y="8.000000" fill="rgb(255,255,255)" fill-opacity="0" />
		<g id="Group">
			<g id="Group">
				<g id="Group">
					<path id="Vector" d="M29.6 14.0602C28.88 14.3602 28.16 14.6002 27.32 14.6602C28.16 14.1802 28.76 13.4002 29.06 12.5002C28.28 12.9802 27.44 13.2802 26.54 13.4602C25.82 12.6802 24.8 12.2002 23.72 12.2002C21.56 12.2002 19.76 13.9402 19.76 16.1602C19.76 16.4602 19.82 16.7602 19.88 17.0602C16.58 16.8802 13.7 15.3202 11.72 12.9202C11.36 13.5202 11.18 14.1802 11.18 14.9002C11.18 16.2802 11.9 17.4802 12.92 18.2002C12.26 18.2002 11.66 18.0202 11.12 17.7202L11.12 17.7802C11.12 19.7002 12.5 21.2602 14.3 21.6202C13.94 21.6802 13.64 21.7402 13.28 21.7402C13.04 21.7402 12.8 21.7402 12.56 21.6802C13.04 23.2402 14.54 24.3802 16.22 24.4402C14.9 25.5202 13.16 26.1202 11.3 26.1202C11 26.1202 10.64 26.1202 10.34 26.0602C12.14 27.1402 14.24 27.8002 16.46 27.8002C23.72 27.8002 27.68 21.8002 27.68 16.5802C27.68 16.4002 27.68 16.2202 27.68 16.1002C28.4 15.5002 29.06 14.8402 29.6 14.0602Z" fill="rgb(70,114,216)" fill-rule="nonzero" />
				</g>
			</g>
		</g>
	</g>
	<rect id="i.fab fa-telegram" width="16.000000" height="16.000000" x="16.000000" y="12.000000" />
</svg>
