<svg viewBox="0 0 40 40" xmlns="http://www.w3.org/2000/svg" xmlns:xlink="http://www.w3.org/1999/xlink" width="40.000000" height="40.000000" fill="none" customFrame="url(#clipPath_0)">
	<defs>
		<clipPath id="clipPath_0">
			<rect width="40.000000" height="40.000000" x="0.000000" y="0.000000" rx="20.000000" fill="rgb(255,255,255)" />
		</clipPath>
		<clipPath id="clipPath_1">
			<rect width="28.000000" height="27.000000" x="5.500000" y="6.500000" fill="rgb(255,255,255)" />
		</clipPath>
	</defs>
	<rect id="a.social-link" width="40.000000" height="40.000000" x="0.000000" y="0.000000" rx="20.000000" fill="rgb(224,224,224)" fill-opacity="255" />
	<g id="Logo youtube 1" clip-path="url(#clipPath_1)" customFrame="url(#clipPath_1)">
		<rect id="Logo youtube 1" width="28.000000" height="27.000000" x="5.500000" y="6.500000" fill="rgb(255,255,255)" fill-opacity="0" />
		<g id="Group">
			<g id="Group">
				<g id="Group">
					<path id="Vector" d="M31.19 16.3075C31.19 16.3075 30.98 14.8225 30.28 14.1475C29.44 13.27 28.46 13.27 28.04 13.2025C24.89 13 20.2 13 20.2 13C20.2 13 15.51 13 12.36 13.2025C11.94 13.27 10.96 13.27 10.12 14.1475C9.42 14.8225 9.21 16.3075 9.21 16.3075C9.21 16.3075 9 18.0625 9 19.8175L9 21.4375C9 23.1925 9.21 24.9475 9.21 24.9475C9.21 24.9475 9.42 26.4325 10.12 27.1075C10.96 27.985 12.08 27.9175 12.57 28.0525C14.39 28.1875 20.2 28.255 20.2 28.255C20.2 28.255 24.89 28.255 28.04 28.0525C28.46 27.985 29.44 27.985 30.28 27.1075C30.98 26.4325 31.19 24.9475 31.19 24.9475C31.19 24.9475 31.4 23.1925 31.4 21.4375L31.4 19.8175C31.4 18.0625 31.19 16.3075 31.19 16.3075ZM17.89 23.4625L17.89 17.3875L23.91 20.425L17.89 23.4625Z" fill="rgb(70,114,216)" fill-rule="nonzero" />
				</g>
			</g>
		</g>
	</g>
	<rect id="i.fab fa-facebook-f" width="10.000000" height="16.000000" x="37.500000" y="12.000000" />
</svg>
