<svg viewBox="0 0 40 40" xmlns="http://www.w3.org/2000/svg" xmlns:xlink="http://www.w3.org/1999/xlink" width="40.000000" height="40.000000" fill="none" customFrame="url(#clipPath_0)">
	<defs>
		<clipPath id="clipPath_0">
			<rect width="40.000000" height="40.000000" x="0.000000" y="0.000000" rx="20.000000" fill="rgb(255,255,255)" />
		</clipPath>
	</defs>
	<rect id="a.social-link" width="40.000000" height="40.000000" x="0.000000" y="0.000000" rx="20.000000" fill="rgb(224,224,224)" fill-opacity="255" />
	<rect id="i.fab fa-youtube" width="18.000000" height="16.000000" x="10.000000" y="12.000000" />
	<g id="Group">
		<g id="Group">
			<g id="Group">
				<path id="Vector" d="M28.8 11L13.2 11C12.5373 11 12 11.5373 12 12.2L12 27.8C12 28.4627 12.5373 29 13.2 29L28.8 29C29.4627 29 30 28.4627 30 27.8L30 12.2C30 11.5373 29.4627 11 28.8 11ZM17.3322 26.3564L14.6244 26.3564L14.6244 17.75L17.3322 17.75L17.3322 26.3564ZM15.978 16.5686C15.1088 16.566 14.406 15.8596 14.4078 14.9904C14.4096 14.1212 15.1152 13.4177 15.9844 13.4186C16.8536 13.4195 17.5578 14.1244 17.5578 14.9936C17.558 15.4122 17.3914 15.8136 17.095 16.1092C16.7985 16.4047 16.3966 16.57 15.978 16.5686ZM27.3726 26.3564L24.72 26.3564L24.72 22.1936C24.72 21.1814 24.72 19.9436 23.31 19.9436C21.9 19.9436 21.7302 21.0128 21.7302 22.1372L21.7302 26.4128L19.08 26.4128L19.08 17.75L21.5616 17.75L21.5616 18.9314L21.618 18.9314C22.1395 18.0297 23.1156 17.489 24.1566 17.525C26.8644 17.525 27.372 19.325 27.372 21.6314L27.3726 26.3564Z" fill="rgb(70,114,216)" fill-rule="nonzero" />
			</g>
		</g>
	</g>
</svg>
