<svg width="36" height="36" viewBox="0 0 36 36" fill="none" xmlns="http://www.w3.org/2000/svg">
<rect width="36" height="36" stroke="#BCC1CA"/>
<path d="M24.2588 11.7666L22.4123 8.56887C22.0966 8.02222 21.3075 8.0223 20.992 8.56904L17.7296 14.222L15.1727 18.6498L17.7296 23.0776L19.4524 20.0956L20.2864 18.6498L21.702 16.1972L28.9418 28.4218H32.924C33.5634 28.4218 33.9568 27.7223 33.6247 27.1759L24.2588 11.7666Z" fill="#636AE8"/>
<path d="M17.2278 23.9768H12.6875L10.1306 28.4046H14.6709L17.2278 23.9768Z" fill="url(#paint0_linear_40_4)"/>
<path d="M12.6849 23.994L10.1281 28.4218H24.5316C25.1628 28.4218 25.5573 27.7384 25.2417 27.1917L23.3951 23.994L20.3116 18.6498L17.7547 14.222L16.3364 11.7666L14.4897 8.56865C14.1741 8.02203 13.3851 8.02203 13.0694 8.56869L2.31726 27.1918C2.00164 27.7384 2.39616 28.4218 3.0274 28.4218H6.72079L11.53 20.0956L13.7796 16.1972L15.1979 18.6498L17.7547 23.0776L18.2814 23.994H17.2252H12.6849Z" fill="#999DF0"/>
<defs>
<linearGradient id="paint0_linear_40_4" x1="24.0616" y1="8.42727" x2="12.5091" y2="28.1934" gradientUnits="userSpaceOnUse">
<stop stop-color="#58CAEF"/>
<stop offset="0.18" stop-color="#4EBEE8"/>
<stop offset="0.5" stop-color="#33A1D6"/>
<stop offset="0.92" stop-color="#0871B9"/>
<stop offset="1" stop-color="#0067B3"/>
</linearGradient>
</defs>
</svg>
